<svg xmlns="http://www.w3.org/2000/svg" width="237" height="80"><g fill="#fff"><path d="M122.031 36.626c0-1.224-1.766-1.927-3.953-1.927h-7.754v4.174h7.754c2.264 0 3.953-1.064 3.953-2.248m-3.954 3.971h-7.754v4.8h6.6c3.147 0 5.489-1.1 5.489-2.549 0-1.284-1.881-2.248-4.337-2.248"/><path d="M202.375 16.226V0h-26.991v16.393h-34.846v10.949H91.732V16.393H56.71V7.081H34.816v9.06H0v47.864h34.816v9.278H56.71v-8.75h35.022V52.868h48.806v11.137h34.846V80h26.991V64.005H237V16.226ZM23.293 45.849c0 4.553-2.354 8.09-5.967 8.09-3.394 0-5.665-3.085-5.665-6.622 0-1.091.52-1.806 1.314-1.806s1.314.715 1.314 1.806a3.053 3.053 0 0 0 3.065 3.01c2.08 0 3.312-1.919 3.312-4.478V28.127c0-1.091.52-1.806 1.314-1.806s1.314.715 1.314 1.806ZM50.359 58.89c-.4.468-.844 0-1-1.353l-1.05-9.16h-4.955l-1.17 9.212c-.172 1.353-.585 1.822-1.016 1.3a4.4 4.4 0 0 1-.43-2.967l4.217-32.788c.155-1.2.534-1.978 1.015-1.978.5 0 .878.833 1.016 2.03l3.821 32.684a4.52 4.52 0 0 1-.447 3.019m32.755-6.64c0 1.1-.523 1.817-1.321 1.817s-1.322-.719-1.322-1.817V34.8l-4.6 13.625a1.674 1.674 0 0 1-3.3 0L67.971 34.8v17.451c0 1.1-.523 1.817-1.322 1.817s-1.322-.719-1.322-1.817V28.37a1.536 1.536 0 0 1 1.487-1.741 1.73 1.73 0 0 1 1.6 1.4l5.81 17.182 5.81-17.182a1.73 1.73 0 0 1 1.6-1.4 1.536 1.536 0 0 1 1.487 1.741Zm34.153-5.133h-9.285c-.844 0-1.382-.281-1.382-.723v-12.7c0-.441.537-.722 1.382-.722h10.436c3.914 0 6.868 1.365 6.868 3.431 0 1.585-1.726 3.171-3.875 3.331 2.417 0 4.259 1.4 4.259 3.171 0 2.448-3.607 4.214-8.4 4.214m48.007 6.537c-.63.337-1.342 0-1.589-.973l-1.671-6.587h-7.889l-1.863 6.625c-.274.973-.931 1.31-1.616.936a1.79 1.79 0 0 1-.685-2.133l6.711-23.58a1.627 1.627 0 0 1 3.232.038l6.081 23.5a1.85 1.85 0 0 1-.712 2.171m23.923 9.584c-2.695 0-4.138-4.34-5.093-8.428a7.06 7.06 0 0 1 .255-4.025c.467-1.069.976-.755 1.316.629.827 3.459 1.7 6.037 3.522 6.037 1.7 0 2.992-2.075 2.992-6.981 0-3.145-.53-5.912-1.8-7.233l-2.971-3.019c-2.207-2.264-3.077-6.981-3.077-12.39 0-8.05 1.909-12.264 4.583-12.264 2.079 0 3.565 2.578 4.583 6.792a7.23 7.23 0 0 1-.191 4.088c-.467 1.069-1 .755-1.358-.692-.742-2.83-1.7-4.528-3.14-4.528-1.506 0-2.568 1.824-2.568 6.54 0 2.893.4 5.346 1.486 6.478l2.822 3.019c2.419 2.578 3.544 6.792 3.544 12.955 0 8.427-2.122 13.018-4.9 13.018m33.675-25.621c.789 0 1.307.714 1.307 1.8s-.517 1.8-1.307 1.8h-6.38v8.414h8c.79 0 1.307.714 1.307 1.8s-.517 1.8-1.307 1.8h-9.63c-.6 0-.98-.526-.98-1.352V28.112c0-.826.381-1.352.98-1.352h9.636c.79 0 1.307.714 1.307 1.8s-.517 1.8-1.307 1.8h-8v7.249Z"/><path d="M43.989 43.537h3.754l-1.791-15.3Zm111.178-.922h5.974l-2.85-11Z"/></g><path fill="none" d="M0 0h237v80H0z"/></svg>